<svg width="13" height="18" viewBox="0 0 13 18" fill="none" xmlns="http://www.w3.org/2000/svg">
<path d="M6.21898 0.259521C2.91686 0.259521 0.241211 2.68215 0.241211 5.68299C0.241211 10.8717 6.21898 17.6385 6.21898 17.6385C6.21898 17.6385 12.1967 10.8706 12.1967 5.68299C12.1967 2.68323 9.5211 0.259521 6.21898 0.259521ZM6.21898 8.68383C5.36286 8.68383 4.54181 8.37465 3.93644 7.82432C3.33107 7.27399 2.99098 6.52757 2.99098 5.74928C2.99098 4.971 3.33107 4.22458 3.93644 3.67425C4.54181 3.12392 5.36286 2.81474 6.21898 2.81474C7.07509 2.81474 7.89615 3.12392 8.50151 3.67425C9.10688 4.22458 9.44697 4.971 9.44697 5.74928C9.44697 6.52757 9.10688 7.27399 8.50151 7.82432C7.89615 8.37465 7.07509 8.68383 6.21898 8.68383Z" fill="url(#paint0_linear)"/>
<defs>
<linearGradient id="paint0_linear" x1="6.21898" y1="0.259521" x2="6.21898" y2="17.6385" gradientUnits="userSpaceOnUse">
<stop stop-color="#FF4D00"/>
<stop offset="1" stop-color="#2863F7"/>
</linearGradient>
</defs>
</svg>
