<svg width="21" height="20" viewBox="0 0 21 20" fill="none" xmlns="http://www.w3.org/2000/svg">
<path fill-rule="evenodd" clip-rule="evenodd" d="M14.2146 7.45131C14.2146 8.39468 13.8399 9.29943 13.1728 9.9665C12.5057 10.6336 11.601 11.0083 10.6576 11.0083C9.71422 11.0083 8.80948 10.6336 8.14241 9.9665C7.47534 9.29943 7.10059 8.39468 7.10059 7.45131C7.10059 6.50793 7.47534 5.60318 8.14241 4.93611C8.80948 4.26904 9.71422 3.89429 10.6576 3.89429C11.601 3.89429 12.5057 4.26904 13.1728 4.93611C13.8399 5.60318 14.2146 6.50793 14.2146 7.45131ZM12.4361 7.45131C12.4361 7.923 12.2487 8.37537 11.9152 8.7089C11.5817 9.04244 11.1293 9.22981 10.6576 9.22981C10.1859 9.22981 9.73354 9.04244 9.40001 8.7089C9.06647 8.37537 8.87909 7.923 8.87909 7.45131C8.87909 6.97962 9.06647 6.52724 9.40001 6.19371C9.73354 5.86017 10.1859 5.6728 10.6576 5.6728C11.1293 5.6728 11.5817 5.86017 11.9152 6.19371C12.2487 6.52724 12.4361 6.97962 12.4361 7.45131Z" fill="url(#paint0_linear)"/>
<path fill-rule="evenodd" clip-rule="evenodd" d="M10.6588 0.336914C5.25653 0.336914 0.876953 4.71649 0.876953 10.1187C0.876953 15.5209 5.25653 19.9005 10.6588 19.9005C16.061 19.9005 20.4406 15.5209 20.4406 10.1187C20.4406 4.71649 16.061 0.336914 10.6588 0.336914ZM2.65546 10.1187C2.65546 11.9773 3.2895 13.6882 4.35216 15.047C5.09845 14.0669 6.06122 13.2727 7.16526 12.7263C8.2693 12.1799 9.48471 11.8962 10.7166 11.8972C11.9325 11.8961 13.1326 12.1725 14.2255 12.7054C15.3184 13.2383 16.2753 14.0136 17.0231 14.9723C17.7936 13.9617 18.3124 12.7822 18.5366 11.5314C18.7607 10.2805 18.6838 8.99428 18.3121 7.77907C17.9405 6.56386 17.2848 5.45462 16.3993 4.54312C15.5139 3.63163 14.4241 2.94408 13.2201 2.53738C12.0162 2.13068 10.7327 2.01651 9.47592 2.20432C8.2191 2.39214 7.02507 2.87653 5.99263 3.61742C4.96019 4.35831 4.11901 5.33441 3.5387 6.46494C2.95838 7.59547 2.65562 8.84794 2.65546 10.1187ZM10.6588 18.122C8.82151 18.1248 7.03972 17.4927 5.6149 16.3328C6.18841 15.5118 6.95175 14.8415 7.83999 14.3789C8.72822 13.9162 9.71507 13.675 10.7166 13.6757C11.7055 13.6749 12.6805 13.9101 13.5603 14.3617C14.4402 14.8133 15.1996 15.4683 15.7755 16.2724C14.3396 17.4699 12.5285 18.1246 10.6588 18.122Z" fill="url(#paint1_linear)"/>
<defs>
<linearGradient id="paint0_linear" x1="10.6576" y1="3.89429" x2="10.6576" y2="11.0083" gradientUnits="userSpaceOnUse">
<stop stop-color="#FF4D00"/>
<stop offset="1" stop-color="#2863F7"/>
</linearGradient>
<linearGradient id="paint1_linear" x1="10.6588" y1="0.336914" x2="10.6588" y2="19.9005" gradientUnits="userSpaceOnUse">
<stop stop-color="#FF4D00"/>
<stop offset="1" stop-color="#2863F7"/>
</linearGradient>
</defs>
</svg>
